<svg xmlns="http://www.w3.org/2000/svg" viewBox="0 0 2500 2500" xmlns:v="https://vecta.io/nano"><g fill="#5da9fe"><circle cx="489.61" cy="1474.32" r="70.67"/><path d="M343.82,983.36a206.09,206.09,0,0,1,82.8,17A215.45,215.45,0,0,1,495,1047a226.17,226.17,0,0,1,46.2,68.43q17,38.79,17,83.24,0,46.2-17,85.85a228.26,228.26,0,0,1-46.2,69.73,211.88,211.88,0,0,1-68.42,47.07,206.09,206.09,0,0,1-82.8,17q-46.21,0-85.42-17a206.9,206.9,0,0,1-68-47.07,225.46,225.46,0,0,1-45.32-69.73q-16.58-39.64-16.56-85.85,0-44.46,16.56-83.24A223.27,223.27,0,0,1,190.41,1047a210.31,210.31,0,0,1,68-46.63Q297.63,983.36,343.82,983.36Zm0,144.68q-30.52,0-53.17,20T268,1198.65a67.82,67.82,0,0,0,6.11,28.32,79.79,79.79,0,0,0,16.56,24,78.52,78.52,0,0,0,24.4,16.56,70.82,70.82,0,0,0,28.77,6.1q29.61,0,49.68-22.66t20-52.29q0-30.51-20-50.56T343.82,1128Z"/></g><path d="M1051.56 1057.44v285a70.36 70.36 0 0 1-6.1 29.2 81.07 81.07 0 0 1-40.54 40.53 70 70 0 0 1-29.19 6.1 48 48 0 0 1-25.28-7.41 139.85 139.85 0 0 1-21.79-16.12 462.1 462.1 0 0 1-45.76 16.12q-24.84 7.42-45.76 7.41-46.21 0-86.29-17a223.34 223.34 0 0 1-117.67-115.06 198.41 198.41 0 0 1-17.43-82.36q0-46.2 17.43-86.29a224 224 0 0 1 117.67-117.64q40.08-17.43 86.29-17.43 20.93 0 45.76 7a314.1 314.1 0 0 1 45.76 16.51 102.68 102.68 0 0 1 21.79-16.56 50.26 50.26 0 0 1 25.28-7 70.19 70.19 0 0 1 29.19 6.1 81.07 81.07 0 0 1 40.54 40.53 68.34 68.34 0 0 1 6.1 28.37zM837.14 1128a70.21 70.21 0 0 0-29.2 6.11 84.86 84.86 0 0 0-24 16.12 74.45 74.45 0 0 0-22.66 53.61 55.8 55.8 0 0 0 6.1 25.27 74.33 74.33 0 0 0 16.62 21.83 81.9 81.9 0 0 0 24 15.26 74.66 74.66 0 0 0 29.2 5.66 59.38 59.38 0 0 0 25.28-5.66 76.56 76.56 0 0 0 37-37 59.46 59.46 0 0 0 5.67-25.27 78.15 78.15 0 0 0-5.67-29.64 75.77 75.77 0 0 0-15.25-24 79.1 79.1 0 0 0-21.79-16.12 56 56 0 0 0-25.3-6.17zm491.58 298.14q-38.35 0-70.6-18.31v235.34q0 30.49-23.53 50.55-23.53 20.06-54.91 20-30.53 0-50.56-20-20.03-20-20-50.55v-442.78-128.13c-.88-19.39-1.62-23.17-.13-39.66.89-9.7 4.4-37.66 32.29-54.06 15-8.81 65.35-8.07 86.07-2.35 17 4.7 22 14.1 23.26 20.06 6-2.58 3-1.22 9.18-3.23a221.7 221.7 0 0 1 69-10.53q46.2 0 86.29 17.43a215.2 215.2 0 0 1 69.3 47.5 223.5 223.5 0 0 1 45.76 69.29 213.09 213.09 0 0 1 16.56 83.68q0 47.07-16.56 88a228.47 228.47 0 0 1-45.76 71.91 208.45 208.45 0 0 1-69.3 48.37q-40.16 17.46-86.36 17.47zm0-149.92a71.05 71.05 0 0 0 28.77-6.1 82.74 82.74 0 0 0 24.4-16.13 79.22 79.22 0 0 0 17-24 68.87 68.87 0 0 0 6.54-29.63 60.74 60.74 0 0 0-6.54-28.33 79.68 79.68 0 0 0-17-22.23 74.42 74.42 0 0 0-24.4-14.81 81.24 81.24 0 0 0-28.77-5.23q-32.25 0-51.42 20-19.17 20-19.18 50.56 0 31.38 19.18 53.6 19.18 22.22 51.42 22.3zm482.12-217.9v284.14a70.36 70.36 0 0 1-6.1 29.2 81.1 81.1 0 0 1-40.53 40.53 70.15 70.15 0 0 1-29.2 6.1 58.54 58.54 0 0 1-25.72-6.1 78.13 78.13 0 0 1-22.66-16.56 84.24 84.24 0 0 1-16.12-24 69.89 69.89 0 0 1-6.1-29.2v-284.11a69.93 69.93 0 0 1 6.1-29.2 84.38 84.38 0 0 1 16.12-24 78.13 78.13 0 0 1 22.66-16.56 58.68 58.68 0 0 1 25.72-6.1 70.31 70.31 0 0 1 29.2 6.1 81.1 81.1 0 0 1 40.53 40.53 70.4 70.4 0 0 1 6.1 29.23zm560.63.96v285a70.24 70.24 0 0 1-6.1 29.2 81.1 81.1 0 0 1-40.53 40.53 70.08 70.08 0 0 1-29.2 6.1 48 48 0 0 1-25.27-7.41 138.78 138.78 0 0 1-21.79-16.13 459.5 459.5 0 0 1-45.76 16.13q-24.84 7.41-45.76 7.41-46.21 0-86.29-17a223.28 223.28 0 0 1-117.67-115.05 198.46 198.46 0 0 1-17.43-82.37q0-46.18 17.43-86.29a224 224 0 0 1 117.67-117.67q40.08-17.41 86.29-17.43 20.91 0 45.76 7a315.28 315.28 0 0 1 45.76 16.56 102.76 102.76 0 0 1 21.79-16.56 50.35 50.35 0 0 1 25.27-7 70.24 70.24 0 0 1 29.2 6.1 81 81 0 0 1 40.53 40.53 68.26 68.26 0 0 1 6.1 28.35zm-214.41 70.6a70.21 70.21 0 0 0-29.2 6.1 84.68 84.68 0 0 0-24 16.13 74.45 74.45 0 0 0-22.66 53.6 55.81 55.81 0 0 0 6.1 25.28 74.59 74.59 0 0 0 16.56 21.79 81.67 81.67 0 0 0 24 15.25 74.48 74.48 0 0 0 29.2 5.67 59.2 59.2 0 0 0 25.27-5.67 76.56 76.56 0 0 0 37.05-37 59.46 59.46 0 0 0 5.66-25.28 78.09 78.09 0 0 0-5.66-29.63 75.51 75.51 0 0 0-15.26-24 78.93 78.93 0 0 0-21.79-16.13 56 56 0 0 0-25.27-6.11z"/><rect x="1567.52" y="1064.73" width="340.2" height="127.39" rx="52.03"/></svg>