<svg width="119" height="88" viewBox="0 0 119 88" fill="none" xmlns="http://www.w3.org/2000/svg">
<circle cx="59" cy="25" r="25" fill="black"/>
<path d="M15.3281 74.0625H5.79688L3.65625 80H0.5625L9.25 57.25H11.875L20.5781 80H17.5L15.3281 74.0625ZM6.70312 71.5938H14.4375L10.5625 60.9531L6.70312 71.5938ZM22.4844 71.4062C22.4844 68.8125 23.099 66.7292 24.3281 65.1562C25.5573 63.5729 27.1667 62.7812 29.1562 62.7812C31.1354 62.7812 32.7031 63.4583 33.8594 64.8125V56H36.75V80H34.0938L33.9531 78.1875C32.7969 79.6042 31.1875 80.3125 29.125 80.3125C27.1667 80.3125 25.5677 79.5104 24.3281 77.9062C23.099 76.3021 22.4844 74.2083 22.4844 71.625V71.4062ZM25.375 71.7344C25.375 73.651 25.7708 75.151 26.5625 76.2344C27.3542 77.3177 28.4479 77.8594 29.8438 77.8594C31.6771 77.8594 33.0156 77.0365 33.8594 75.3906V67.625C32.9948 66.0312 31.6667 65.2344 29.875 65.2344C28.4583 65.2344 27.3542 65.7812 26.5625 66.875C25.7708 67.9688 25.375 69.5885 25.375 71.7344ZM49.6406 80V57.25H56.0625C58.0417 57.25 59.7917 57.6875 61.3125 58.5625C62.8333 59.4375 64.0052 60.6823 64.8281 62.2969C65.6615 63.9115 66.0833 65.7656 66.0938 67.8594V69.3125C66.0938 71.4583 65.6771 73.3385 64.8438 74.9531C64.0208 76.5677 62.8385 77.8073 61.2969 78.6719C59.7656 79.5365 57.9792 79.9792 55.9375 80H49.6406ZM52.6406 59.7188V77.5469H55.7969C58.1094 77.5469 59.9062 76.8281 61.1875 75.3906C62.4792 73.9531 63.125 71.9062 63.125 69.25V67.9219C63.125 65.3385 62.5156 63.3333 61.2969 61.9062C60.0885 60.4688 58.3698 59.7396 56.1406 59.7188H52.6406ZM78.3594 65.6875C77.9219 65.6146 77.4479 65.5781 76.9375 65.5781C75.0417 65.5781 73.7552 66.3854 73.0781 68V80H70.1875V63.0938H73L73.0469 65.0469C73.9948 63.5365 75.3385 62.7812 77.0781 62.7812C77.6406 62.7812 78.0677 62.8542 78.3594 63V65.6875ZM84.1719 80H81.2812V63.0938H84.1719V80ZM81.0469 58.6094C81.0469 58.1406 81.1875 57.7448 81.4688 57.4219C81.7604 57.099 82.1875 56.9375 82.75 56.9375C83.3125 56.9375 83.7396 57.099 84.0312 57.4219C84.3229 57.7448 84.4688 58.1406 84.4688 58.6094C84.4688 59.0781 84.3229 59.4688 84.0312 59.7812C83.7396 60.0938 83.3125 60.25 82.75 60.25C82.1875 60.25 81.7604 60.0938 81.4688 59.7812C81.1875 59.4688 81.0469 59.0781 81.0469 58.6094ZM94.3906 76.0781L98.5781 63.0938H101.531L95.4688 80H93.2656L87.1406 63.0938H90.0938L94.3906 76.0781ZM111.109 80.3125C108.818 80.3125 106.953 79.5625 105.516 78.0625C104.078 76.5521 103.359 74.5365 103.359 72.0156V71.4844C103.359 69.8073 103.677 68.3125 104.312 67C104.958 65.6771 105.854 64.6458 107 63.9062C108.156 63.1562 109.406 62.7812 110.75 62.7812C112.948 62.7812 114.656 63.5052 115.875 64.9531C117.094 66.401 117.703 68.474 117.703 71.1719V72.375H106.25C106.292 74.0417 106.776 75.3906 107.703 76.4219C108.641 77.4427 109.828 77.9531 111.266 77.9531C112.286 77.9531 113.151 77.7448 113.859 77.3281C114.568 76.9115 115.188 76.3594 115.719 75.6719L117.484 77.0469C116.068 79.224 113.943 80.3125 111.109 80.3125ZM110.75 65.1562C109.583 65.1562 108.604 65.5833 107.812 66.4375C107.021 67.2812 106.531 68.4688 106.344 70H114.812V69.7812C114.729 68.3125 114.333 67.1771 113.625 66.375C112.917 65.5625 111.958 65.1562 110.75 65.1562Z" fill="black"/>
</svg>
