<svg id="Layer_5" data-name="Layer 5" xmlns="http://www.w3.org/2000/svg" viewBox="0 0 2500 2500"><defs><style>.cls-1{fill:#5da9fe;}</style></defs><g id="q"><circle class="cls-1" cx="1840.99" cy="2105.31" r="287.65"/><path class="cls-1" d="M1247.61,107q177.35,0,337,69.18T1863.11,366q118.82,120.64,188,278.49t69.17,338.79q0,188.09-69.17,349.43t-188,283.81q-118.9,122.4-278.49,191.57t-337,69.18q-188.08,0-347.67-69.18T623.23,1616.53q-117.06-122.38-184.47-283.81t-67.4-349.43q0-180.91,67.4-338.79T623.23,366Q740.31,245.46,899.94,176.22T1247.61,107Zm0,588.9q-124.23,0-216.41,81.59T939,983.29a276.6,276.6,0,0,0,24.83,115.3,326.37,326.37,0,0,0,67.4,97.56,320.18,320.18,0,0,0,99.34,67.4,288.69,288.69,0,0,0,117.07,24.83q120.56,0,202.2-92.23t81.6-212.86q0-124.14-81.6-205.76T1247.61,695.94Z"/></g></svg>